<svg width="41" height="39" viewBox="0 0 41 39" fill="none" xmlns="http://www.w3.org/2000/svg">
<path d="M36.6667 3.66667V30.6552C36.6669 30.833 36.6153 31.0071 36.5183 31.1562C36.4213 31.3053 36.283 31.423 36.1203 31.4948L20.1667 38.555L4.213 31.4967C4.04971 31.4246 3.91104 31.3063 3.81398 31.1565C3.71693 31.0067 3.66573 30.8318 3.66667 30.6533V3.66667H0V0H40.3333V3.66667H36.6667ZM7.33333 3.66667V28.8658L20.1667 34.5492L33 28.8658V3.66667H7.33333ZM12.8333 11H27.5V14.6667H12.8333V11ZM12.8333 18.3333H27.5V22H12.8333V18.3333Z" fill="#FF8548"/>
</svg>
