<svg width="37" height="33" viewBox="0 0 37 33" fill="none" xmlns="http://www.w3.org/2000/svg">
<path d="M33 7.33333V3.66667H3.66667V29.3333H33V25.6667H18.3333C17.8471 25.6667 17.3808 25.4735 17.037 25.1297C16.6932 24.7859 16.5 24.3196 16.5 23.8333V9.16667C16.5 8.68044 16.6932 8.21412 17.037 7.8703C17.3808 7.52649 17.8471 7.33333 18.3333 7.33333H33ZM1.83333 0H34.8333C35.3196 0 35.7859 0.193154 36.1297 0.536971C36.4735 0.880787 36.6667 1.3471 36.6667 1.83333V31.1667C36.6667 31.6529 36.4735 32.1192 36.1297 32.463C35.7859 32.8068 35.3196 33 34.8333 33H1.83333C1.3471 33 0.880787 32.8068 0.536971 32.463C0.193154 32.1192 0 31.6529 0 31.1667V1.83333C0 1.3471 0.193154 0.880787 0.536971 0.536971C0.880787 0.193154 1.3471 0 1.83333 0ZM20.1667 11V22H33V11H20.1667ZM23.8333 14.6667H29.3333V18.3333H23.8333V14.6667Z" fill="#738CFD"/>
</svg>
