<svg width="30" height="39" viewBox="0 0 30 39" fill="none" xmlns="http://www.w3.org/2000/svg">
<path d="M29.3333 38.5H25.6667V34.8333C25.6667 33.3746 25.0872 31.9757 24.0558 30.9442C23.0243 29.9128 21.6254 29.3333 20.1667 29.3333H9.16667C7.70797 29.3333 6.30903 29.9128 5.27758 30.9442C4.24613 31.9757 3.66667 33.3746 3.66667 34.8333V38.5H0V34.8333C0 32.4022 0.965771 30.0706 2.68485 28.3515C4.40394 26.6324 6.73551 25.6667 9.16667 25.6667H20.1667C22.5978 25.6667 24.9294 26.6324 26.6485 28.3515C28.3676 30.0706 29.3333 32.4022 29.3333 34.8333V38.5ZM14.6667 22C13.2221 22 11.7917 21.7155 10.4571 21.1627C9.12257 20.6099 7.90993 19.7996 6.88849 18.7782C5.86705 17.7567 5.05679 16.5441 4.50399 15.2095C3.95119 13.8749 3.66667 12.4445 3.66667 11C3.66667 9.55546 3.95119 8.12506 4.50399 6.79048C5.05679 5.4559 5.86705 4.24327 6.88849 3.22183C7.90993 2.20038 9.12257 1.39013 10.4571 0.837325C11.7917 0.284523 13.2221 -2.15253e-08 14.6667 0C17.584 4.34724e-08 20.3819 1.15893 22.4448 3.22183C24.5077 5.28473 25.6667 8.08262 25.6667 11C25.6667 13.9174 24.5077 16.7153 22.4448 18.7782C20.3819 20.8411 17.584 22 14.6667 22ZM14.6667 18.3333C16.6116 18.3333 18.4768 17.5607 19.8521 16.1855C21.2274 14.8102 22 12.9449 22 11C22 9.05508 21.2274 7.18982 19.8521 5.81455C18.4768 4.43928 16.6116 3.66667 14.6667 3.66667C12.7217 3.66667 10.8565 4.43928 9.48122 5.81455C8.10595 7.18982 7.33333 9.05508 7.33333 11C7.33333 12.9449 8.10595 14.8102 9.48122 16.1855C10.8565 17.5607 12.7217 18.3333 14.6667 18.3333Z" fill="#FFCB4B"/>
</svg>
